<?xml version="1.0" encoding="UTF-8" standalone="no"?>
<!-- Created with Inkscape (http://www.inkscape.org/) -->

<svg
   xmlns:dc="http://purl.org/dc/elements/1.1/"
   xmlns:cc="http://creativecommons.org/ns#"
   xmlns:rdf="http://www.w3.org/1999/02/22-rdf-syntax-ns#"
   xmlns:svg="http://www.w3.org/2000/svg"
   xmlns="http://www.w3.org/2000/svg"
   xmlns:sodipodi="http://sodipodi.sourceforge.net/DTD/sodipodi-0.dtd"
   xmlns:inkscape="http://www.inkscape.org/namespaces/inkscape"
   width="39.904251pc"
   height="15.484016pc"
   viewBox="0 0 168.92799 65.549004"
   version="1.1"
   id="svg4319"
   inkscape:version="0.92.4 (5da689c313, 2019-01-14)"
   sodipodi:docname="Logo-Horizontal-Lockup-White.svg"
   inkscape:export-filename="D:\Acropolis Blues\Images\Logo-Horizontal-Lockup-White.png"
   inkscape:export-xdpi="72"
   inkscape:export-ydpi="72">
  <defs
     id="defs4313">
    <clipPath
       clipPathUnits="userSpaceOnUse"
       id="clipPath4197">
      <path
         d="M 1090.32,635.391 H 1572.2 V 444.615 h -481.88 z"
         id="path4195"
         inkscape:connector-curvature="0" />
    </clipPath>
    <clipPath
       clipPathUnits="userSpaceOnUse"
       id="clipPath4203">
      <path
         d="M -347.797,635.391 H 1572.21 V 406.957 H -347.797 Z"
         id="path4201"
         inkscape:connector-curvature="0" />
    </clipPath>
    <clipPath
       clipPathUnits="userSpaceOnUse"
       id="clipPath4209">
      <path
         d="M 0,406.957 H 1572.2 V 635.391 H 0 Z"
         id="path4207"
         inkscape:connector-curvature="0" />
    </clipPath>
    <clipPath
       clipPathUnits="userSpaceOnUse"
       id="clipPath4197-8">
      <path
         d="M 1090.32,635.391 H 1572.2 V 444.615 h -481.88 z"
         id="path4195-4"
         inkscape:connector-curvature="0" />
    </clipPath>
    <clipPath
       clipPathUnits="userSpaceOnUse"
       id="clipPath4203-3">
      <path
         d="M -347.797,635.391 H 1572.21 V 406.957 H -347.797 Z"
         id="path4201-2"
         inkscape:connector-curvature="0" />
    </clipPath>
    <clipPath
       clipPathUnits="userSpaceOnUse"
       id="clipPath4209-8">
      <path
         d="M 0,406.957 H 1572.2 V 635.391 H 0 Z"
         id="path4207-8"
         inkscape:connector-curvature="0" />
    </clipPath>
  </defs>
  <sodipodi:namedview
     id="base"
     pagecolor="#ffffff"
     bordercolor="#666666"
     borderopacity="1.0"
     inkscape:pageopacity="0.0"
     inkscape:pageshadow="2"
     inkscape:zoom="1.979899"
     inkscape:cx="392.08615"
     inkscape:cy="146.0058"
     inkscape:document-units="mm"
     inkscape:current-layer="layer1"
     showgrid="false"
     inkscape:window-width="1920"
     inkscape:window-height="1017"
     inkscape:window-x="-8"
     inkscape:window-y="-8"
     inkscape:window-maximized="1"
     units="pc" />
  <metadata
     id="metadata4316">
    <rdf:RDF>
      <cc:Work
         rdf:about="">
        <dc:format>image/svg+xml</dc:format>
        <dc:type
           rdf:resource="http://purl.org/dc/dcmitype/StillImage" />
        <dc:title></dc:title>
      </cc:Work>
    </rdf:RDF>
  </metadata>
  <g
     inkscape:label="Layer 1"
     inkscape:groupmode="layer"
     id="layer1"
     transform="translate(0,-231.451)">
    <path
       d="m 68.026022,254.43348 c -0.342194,0.35842 -0.705555,0.64946 -1.090083,0.87101 -0.384528,0.2226 -0.751417,0.43603 -1.100667,0.64064 -0.34925,0.20567 -0.652639,0.43604 -0.910166,0.6918 -0.257528,0.25647 -0.437445,0.59866 -0.536223,1.02553 -0.07056,0.32455 -0.05644,0.63676 0.03881,0.93627 0.09172,0.2988 0.246944,0.55421 0.458611,0.76799 0.215195,0.21414 0.472722,0.36337 0.783167,0.44909 0.306916,0.0854 0.638527,0.0854 0.998361,0 0.292805,-0.0684 0.522111,-0.1584 0.691444,-0.26987 0.172861,-0.11113 0.306917,-0.2092 0.409222,-0.29457 0.119945,-0.10231 0.208139,-0.21273 0.257528,-0.33303 z m 5.076472,7.66339 h -1.513416 -1.037167 c -0.3175,0 -0.465667,-0.009 -0.448028,-0.0258 -0.546805,-0.0519 -1.008944,-0.26529 -1.386416,-0.641 -0.373945,-0.37571 -0.589139,-0.83679 -0.638528,-1.38465 -0.172861,0.39405 -0.419806,0.73519 -0.744361,1.02623 -0.324556,0.28998 -0.691445,0.52493 -1.100667,0.7045 -0.41275,0.17956 -0.843139,0.30303 -1.294694,0.37182 -0.455084,0.0674 -0.885472,0.0847 -1.294695,0.0512 -0.41275,-0.0346 -0.804333,-0.11536 -1.178277,-0.24342 -0.377473,-0.12841 -0.709084,-0.32067 -1.001889,-0.57679 -0.289278,-0.25612 -0.518584,-0.58914 -0.691445,-0.99942 -0.169333,-0.41063 -0.257528,-0.91405 -0.257528,-1.51236 0,-0.63218 0.162278,-1.17016 0.490362,-1.61502 0.321027,-0.44344 0.702027,-0.81562 1.139472,-1.11477 0.433916,-0.2981 0.881944,-0.52564 1.344083,-0.67875 0.462139,-0.15416 0.829028,-0.25647 1.104195,-0.30762 0.409222,-0.0681 0.797277,-0.16722 1.164166,-0.29492 0.366889,-0.12841 0.702028,-0.26035 1.001889,-0.39723 0.296333,-0.13652 0.550333,-0.26458 0.754944,-0.38453 0.204612,-0.11959 0.359834,-0.20461 0.462139,-0.25647 0.03175,-0.1023 0.05997,-0.24306 0.07761,-0.42298 0.01411,-0.17921 0.0247,-0.35842 0.0247,-0.53798 v -0.51259 -0.34607 c 0,-0.0508 -0.0035,-0.12771 -0.01411,-0.23072 -0.0071,-0.10231 -0.02117,-0.20885 -0.03881,-0.32068 -0.01764,-0.11042 -0.0388,-0.21766 -0.0635,-0.31961 -0.02469,-0.10301 -0.04586,-0.17075 -0.0635,-0.20497 -0.102305,-0.13723 -0.254,-0.25647 -0.448028,-0.35877 -0.197555,-0.10301 -0.490361,-0.15417 -0.885472,-0.15417 -0.391583,0 -0.691444,0.0512 -0.896055,0.15417 -0.204611,0.1023 -0.352778,0.22154 -0.437445,0.35877 -0.102305,0.15311 -0.162277,0.32456 -0.179916,0.51224 v 1.41005 c -0.01411,0.54645 -0.204611,1.02517 -0.564445,1.43475 -0.356305,0.41063 -0.800805,0.65828 -1.329972,0.7433 -0.08467,0.0173 -0.215194,0.0258 -0.384528,0.0258 -0.631472,0 -1.167694,-0.21766 -1.601611,-0.6537 -0.437444,-0.43603 -0.656167,-0.96978 -0.656167,-1.60196 v -0.25647 -0.10195 c 0.01764,-0.4953 0.137584,-0.92287 0.359834,-1.28164 0.22225,-0.35913 0.515055,-0.65758 0.871361,-0.89676 0.4445,-0.32456 0.945444,-0.57256 1.499305,-0.74401 0.557389,-0.17039 1.083028,-0.2981 1.576917,-0.38418 0.564444,-0.085 1.146528,-0.13652 1.742722,-0.15381 0.306917,0 0.631472,0.0173 0.973667,0.0511 0.292805,0.0346 0.624417,0.0773 1.001889,0.12842 0.373944,0.0512 0.758472,0.12841 1.150055,0.23071 0.649111,0.20532 1.167695,0.46144 1.552222,0.76871 0.384528,0.30762 0.680862,0.61171 0.885473,0.91016 0.204611,0.2988 0.335139,0.57679 0.395111,0.83291 0.05997,0.25612 0.09172,0.43533 0.09172,0.53834 v 5.61305 c 0,0.7687 0.02117,1.40582 0.0635,1.90923 0.04233,0.50377 0.09878,0.91899 0.165806,1.24284 0.06703,0.3757 0.155222,0.67486 0.257527,0.89746"
       style="fill:#ffffff;fill-opacity:1;fill-rule:nonzero;stroke:none;stroke-width:0.35277778"
       id="path4211"
       inkscape:connector-curvature="0" />
    <path
       d="m 84.712411,256.04779 c 0.631472,0 1.167694,0.22119 1.612194,0.66393 0.4445,0.44203 0.66675,0.97825 0.66675,1.60761 0,0.0681 -0.0035,0.1277 -0.01058,0.17815 -0.01058,0.0522 -0.01411,0.10231 -0.01411,0.15416 -0.01764,0.13582 -0.08114,0.39512 -0.1905,0.77788 -0.112889,0.38276 -0.370417,0.77435 -0.769056,1.17369 -0.402167,0.40076 -1.005416,0.75389 -1.80975,1.05975 -0.800805,0.30585 -1.905,0.45931 -3.305528,0.45931 -1.125361,0 -2.060222,-0.10689 -2.793999,-0.32032 -0.733778,-0.21343 -1.322917,-0.47484 -1.767417,-0.78211 -0.4445,-0.30762 -0.769056,-0.62794 -0.973667,-0.96132 -0.204611,-0.33267 -0.342194,-0.62759 -0.409222,-0.88406 l -0.07761,-0.38382 v -0.23072 -6.30555 c 0.01764,-0.6484 0.246944,-1.2386 0.691444,-1.76847 0.186973,-0.22155 0.426861,-0.43921 0.719667,-0.65335 0.289278,-0.21343 0.649111,-0.40569 1.075972,-0.57608 0.426861,-0.17075 0.931334,-0.30798 1.509889,-0.41064 0.582083,-0.10265 1.255889,-0.15381 2.024944,-0.15381 1.400528,0 2.504723,0.15381 3.305528,0.46144 0.804334,0.30727 1.407583,0.66251 1.80975,1.06327 0.398639,0.40181 0.656167,0.79093 0.769056,1.16663 0.109361,0.37571 0.172861,0.63218 0.1905,0.76906 0,0.0681 0.0035,0.12771 0.01411,0.17886 0.0071,0.0515 0.01058,0.11112 0.01058,0.17956 0,0.63218 -0.22225,1.16593 -0.66675,1.60197 -0.4445,0.43603 -0.980722,0.65369 -1.612194,0.65369 -0.635,0 -1.167695,-0.21766 -1.601611,-0.65369 -0.437445,-0.43604 -0.656167,-0.96979 -0.656167,-1.60197 l -0.02469,-1.35819 c -0.01764,-0.18768 -0.07761,-0.35948 -0.179917,-0.51259 -0.08467,-0.13688 -0.232833,-0.25612 -0.448028,-0.35842 -0.215194,-0.10301 -0.508,-0.15416 -0.885472,-0.15416 -0.391583,0 -0.691444,0.0512 -0.896056,0.15416 -0.204611,0.1023 -0.34925,0.22154 -0.433916,0.35842 -0.102306,0.15311 -0.162278,0.32491 -0.179917,0.51259 v 8.48324 c 0.01764,0.20532 0.07761,0.38418 0.179917,0.53834 0.08467,0.13688 0.229305,0.25647 0.433916,0.35843 0.204612,0.10301 0.504473,0.15381 0.896056,0.15381 0.377472,0 0.670278,-0.0508 0.885472,-0.1524 0.215195,-0.10231 0.363361,-0.22084 0.448028,-0.35737 0.102305,-0.1524 0.162278,-0.32244 0.179917,-0.50976 l 0.02469,-1.35043 c 0,-0.62865 0.218722,-1.16417 0.656167,-1.6055 0.433916,-0.44203 0.966611,-0.66322 1.601611,-0.66322"
       style="fill:#ffffff;fill-opacity:1;fill-rule:nonzero;stroke:none;stroke-width:0.35277778"
       id="path4213"
       inkscape:connector-curvature="0" />
    <path
       d="m 101.34588,252.15207 c 0,0.29033 -0.0564,0.57714 -0.1658,0.85866 -0.11289,0.28187 -0.26811,0.52952 -0.46214,0.74295 -0.19756,0.21413 -0.43745,0.38488 -0.719668,0.51258 -0.282223,0.12841 -0.585612,0.19262 -0.910167,0.19262 -0.306917,0 -0.599722,-0.06 -0.881945,-0.17956 -0.282222,-0.1196 -0.525638,-0.28187 -0.73025,-0.48719 -0.208138,-0.20496 -0.370416,-0.44415 -0.486833,-0.71755 -0.119944,-0.2727 -0.179917,-0.56374 -0.179917,-0.87136 v -0.0511 c 0,-0.0854 -0.02822,-0.16193 -0.07761,-0.23037 -0.03528,-0.0511 -0.08467,-0.09 -0.155222,-0.11536 -0.06703,-0.0258 -0.162278,-0.004 -0.282222,0.0642 -0.119945,0.0684 -0.310445,0.21766 -0.575028,0.44838 -0.264583,0.23036 -0.53975,0.47378 -0.821972,0.7299 -0.278694,0.25647 -0.536222,0.496 -0.765528,0.7179 -0.232833,0.2226 -0.373944,0.35878 -0.423333,0.41028 v 7.1247 c 0.01411,0.15416 0.04939,0.28258 0.102305,0.38488 0.03175,0.10195 0.08467,0.19156 0.151695,0.26917 0.07055,0.0765 0.162278,0.11536 0.282222,0.11536 H 89.171522 V 250.4859 c 0,-0.22155 -0.05292,-0.37994 -0.155222,-0.47378 -0.102306,-0.0938 -0.169334,-0.14923 -0.204612,-0.16616 -0.08467,-0.0349 -0.127,-0.10337 -0.127,-0.20567 0,-0.17075 0.08467,-0.25612 0.254,-0.25612 h 2.511778 c 0.310445,0 0.599722,0.06 0.871361,0.17957 0.275167,0.11959 0.515056,0.28222 0.719667,0.48612 0.204611,0.20638 0.366889,0.44944 0.486833,0.73131 0.119945,0.28187 0.179917,0.57609 0.179917,0.88406 v 1.4605 c 0.564444,-0.75141 1.04775,-1.39594 1.4605,-1.93498 0.409222,-0.53834 0.783166,-0.94368 1.125361,-1.21709 0.239889,-0.18803 0.479778,-0.32102 0.719667,-0.39722 0.239888,-0.0769 0.451555,-0.1323 0.638527,-0.16687 0.22225,-0.0335 0.4445,-0.042 0.66675,-0.0254 0.462139,0 0.85725,0.06 1.178278,0.17957 0.324556,0.11959 0.599723,0.27269 0.821973,0.46072 0.22225,0.18874 0.39864,0.3937 0.52564,0.6156 0.127,0.2226 0.23636,0.43533 0.32103,0.64065 0.0494,0.13723 0.0917,0.2734 0.127,0.41028 0.0353,0.13652 0.0529,0.29069 0.0529,0.46108"
       style="fill:#ffffff;fill-opacity:1;fill-rule:nonzero;stroke:none;stroke-width:0.35277778"
       id="path4215"
       inkscape:connector-curvature="0" />
    <path
       d="m 108.72599,260.66107 c 0.37395,0 0.67028,-0.0508 0.88548,-0.15381 0.21166,-0.10231 0.36336,-0.2219 0.44802,-0.35878 0.10231,-0.15416 0.16228,-0.33302 0.17992,-0.53799 v -8.4836 c -0.0176,-0.18767 -0.0776,-0.35912 -0.17992,-0.51223 -0.0847,-0.13688 -0.23636,-0.25717 -0.44802,-0.35877 -0.2152,-0.10301 -0.51153,-0.15417 -0.88548,-0.15417 -0.39158,0 -0.69144,0.0512 -0.89605,0.15417 -0.20461,0.1016 -0.35278,0.22189 -0.43745,0.35877 -0.1023,0.15311 -0.16227,0.32456 -0.17991,0.51223 l 0.0282,8.509 c 0.0141,0.18803 0.0741,0.35843 0.17992,0.51259 0.0847,0.13688 0.2293,0.25647 0.43391,0.35878 0.20461,0.10301 0.49389,0.15381 0.87136,0.15381 m 6.07484,-2.1015 c 0,0.0684 -0.0388,0.29034 -0.11642,0.66604 -0.0776,0.37642 -0.30692,0.77788 -0.69144,1.20474 -0.38453,0.42757 -0.98778,0.81174 -1.80623,1.15358 -0.82197,0.3422 -1.96497,0.51294 -3.43605,0.51294 -1.40053,0 -2.5012,-0.15416 -3.30553,-0.46143 -0.80433,-0.30833 -1.40406,-0.66181 -1.80622,-1.06398 -0.40217,-0.40146 -0.6597,-0.79481 -0.76906,-1.17934 -0.11289,-0.38417 -0.1658,-0.64452 -0.1658,-0.7814 0,-0.0339 -0.007,-0.0981 -0.0141,-0.19191 -0.007,-0.0942 -0.0141,-0.34607 -0.0141,-0.75671 v -1.88383 -3.5493 c 0.0176,-0.64946 0.25048,-1.2386 0.69498,-1.76847 0.18697,-0.2219 0.42686,-0.44027 0.71614,-0.65335 0.28927,-0.21378 0.64911,-0.40569 1.07597,-0.57714 0.42686,-0.17075 0.93133,-0.30727 1.51341,-0.40958 0.57856,-0.10301 1.25589,-0.15416 2.02495,-0.15416 1.40053,0 2.50119,0.15416 3.30553,0.46143 0.8008,0.30763 1.40405,0.66287 1.80622,1.06363 0.40217,0.40181 0.65617,0.79057 0.76905,1.16593 0.10937,0.37641 0.17639,0.63288 0.19403,0.76941 z"
       style="fill:#ffffff;fill-opacity:1;fill-rule:nonzero;stroke:none;stroke-width:0.35277778"
       id="path4217"
       inkscape:connector-curvature="0" />
    <path
       d="m 124.30819,258.38036 v -5.56225 c -0.067,-0.28998 -0.15875,-0.47801 -0.26811,-0.56374 -0.11289,-0.0847 -0.22578,-0.11959 -0.34573,-0.10195 -0.13758,0.0173 -0.28222,0.0765 -0.43744,0.17886 -0.16933,0.15416 -0.35631,0.32526 -0.56444,0.51294 -0.20462,0.18838 -0.39864,0.37147 -0.58914,0.55068 -0.18698,0.17992 -0.35631,0.3422 -0.51153,0.48719 -0.15522,0.14499 -0.26458,0.25223 -0.33514,0.32067 l 0.0282,5.48429 c 0.0141,0.18873 0.0776,0.35877 0.17992,0.51294 0.0847,0.13652 0.2293,0.25611 0.43392,0.35877 0.20461,0.10231 0.50447,0.15346 0.89605,0.15346 0.37747,0 0.66322,-0.0512 0.86078,-0.15346 0.19755,-0.10266 0.34572,-0.22225 0.44803,-0.35877 0.1023,-0.15417 0.16933,-0.32421 0.20461,-0.51294 z m 4.53672,0.51223 c -0.0353,0.20532 -0.127,0.49142 -0.28222,0.85866 -0.15522,0.3676 -0.4445,0.73061 -0.87489,1.08973 -0.42686,0.35843 -1.03364,0.66605 -1.81328,0.92216 -0.77964,0.25612 -1.80269,0.38488 -3.07269,0.38488 -0.56445,0 -1.0795,-0.0257 -1.54517,-0.0765 v 3.27978 c 0.0176,0.15416 0.0529,0.28187 0.10583,0.38452 0.0318,0.0854 0.0847,0.16687 0.1517,0.24342 0.0705,0.0773 0.16228,0.11536 0.28222,0.11536 h -0.53975 -0.17639 -4.3568 v -15.5829 c 0,-0.20496 -0.0529,-0.35454 -0.15523,-0.44803 -0.1023,-0.0942 -0.16933,-0.14958 -0.20461,-0.16686 -0.0847,-0.0512 -0.127,-0.12841 -0.127,-0.23072 0,-0.15416 0.0847,-0.23071 0.254,-0.23071 h 0.23284 2.27894 c 0.30692,0 0.59972,0.06 0.87136,0.17956 0.27517,0.11959 0.51153,0.28187 0.71967,0.48683 0.20461,0.20497 0.36689,0.44415 0.48683,0.7172 0.11995,0.27376 0.17639,0.56444 0.17639,0.87171 l 0.0106,1.40935 c 0.55034,-0.71684 1.02306,-1.34055 1.42523,-1.87078 0.40216,-0.52917 0.77611,-0.93098 1.1183,-1.20438 0.23989,-0.18839 0.47978,-0.31997 0.71967,-0.39758 0.23989,-0.0766 0.45155,-0.13194 0.64205,-0.16651 0.22225,-0.0335 0.4445,-0.0423 0.66675,-0.0254 0.46214,0 0.85725,0.06 1.18181,0.17956 0.32455,0.11959 0.59972,0.27375 0.82197,0.46143 0.22225,0.18803 0.39864,0.393 0.52564,0.61489 0.13053,0.22261 0.23636,0.43568 0.32456,0.64065 0.0494,0.13723 0.0917,0.27799 0.127,0.42333 0.0317,0.14499 0.0494,0.29422 0.0494,0.44803 z"
       style="fill:#ffffff;fill-opacity:1;fill-rule:nonzero;stroke:none;stroke-width:0.35277778"
       id="path4219"
       inkscape:connector-curvature="0" />
    <path
       d="m 136.25324,260.66107 c 0.37395,0 0.67028,-0.0508 0.88195,-0.15381 0.21519,-0.10231 0.36336,-0.2219 0.44803,-0.35878 0.1023,-0.15416 0.16227,-0.33302 0.17991,-0.53799 v -8.4836 c -0.0176,-0.18767 -0.0776,-0.35912 -0.17991,-0.51223 -0.0847,-0.13688 -0.23284,-0.25717 -0.44803,-0.35877 -0.21167,-0.10301 -0.508,-0.15417 -0.88195,-0.15417 -0.39511,0 -0.69497,0.0512 -0.89958,0.15417 -0.20461,0.1016 -0.34925,0.22189 -0.43392,0.35877 -0.1023,0.15311 -0.16227,0.32456 -0.17991,0.51223 l 0.0247,8.509 c 0.0176,0.18803 0.0776,0.35843 0.17992,0.51259 0.0847,0.13688 0.2293,0.25647 0.43744,0.35878 0.20461,0.10301 0.49389,0.15381 0.87136,0.15381 m 6.07131,-2.1015 c 0,0.0684 -0.0353,0.29034 -0.11289,0.66604 -0.0776,0.37642 -0.30692,0.77788 -0.69144,1.20474 -0.38453,0.42757 -0.98778,0.81174 -1.80975,1.15358 -0.81845,0.3422 -1.96498,0.51294 -3.43253,0.51294 -1.40406,0 -2.50472,-0.15416 -3.30553,-0.46143 -0.80433,-0.30833 -1.40758,-0.66181 -1.80975,-1.06398 -0.39864,-0.40146 -0.65617,-0.79481 -0.76906,-1.17934 -0.10936,-0.38417 -0.1658,-0.64452 -0.1658,-0.7814 0,-0.0339 -0.004,-0.0981 -0.0106,-0.19191 -0.0106,-0.0942 -0.0141,-0.34607 -0.0141,-0.75671 v -1.88383 -3.5493 c 0.0176,-0.64946 0.24695,-1.2386 0.69145,-1.76847 0.18697,-0.2219 0.42686,-0.44027 0.71967,-0.65335 0.28927,-0.21378 0.64911,-0.40569 1.07597,-0.57714 0.42686,-0.17075 0.93133,-0.30727 1.50989,-0.40958 0.58208,-0.10301 1.25589,-0.15416 2.02494,-0.15416 1.40053,0 2.50472,0.15416 3.30553,0.46143 0.80433,0.30763 1.40758,0.66287 1.80975,1.06363 0.39864,0.40181 0.65617,0.79057 0.76905,1.16593 0.10937,0.37641 0.17287,0.63288 0.1905,0.76941 z"
       style="fill:#ffffff;fill-opacity:1;fill-rule:nonzero;stroke:none;stroke-width:0.35277778"
       id="path4221"
       inkscape:connector-curvature="0" />
    <path
       d="m 148.52991,259.95657 c 0.0494,0.50377 0.10936,0.91899 0.17639,1.24284 0.0705,0.3757 0.15522,0.67486 0.25753,0.89746 l -3.02331,-0.0258 c -0.53269,-0.0684 -0.98425,-0.29069 -1.35819,-0.66675 -0.37748,-0.37571 -0.58914,-0.83714 -0.64206,-1.3843 v -12.96811 c 0,-0.2219 -0.0494,-0.381 -0.15169,-0.47449 -0.10584,-0.0935 -0.17287,-0.14958 -0.20814,-0.16651 h -0.0247 c -0.067,-0.0339 -0.1023,-0.1023 -0.1023,-0.20532 0,-0.17074 0.0776,-0.25541 0.2293,-0.25541 h 0.25753 2.25425 c 0.635,0 1.17122,0.22155 1.61572,0.66605 0.4445,0.4445 0.66675,0.98284 0.66675,1.61431 v 9.81675 c -0.0176,0.7687 0,1.40582 0.0529,1.90923"
       style="fill:#ffffff;fill-opacity:1;fill-rule:nonzero;stroke:none;stroke-width:0.35277778"
       id="path4223"
       inkscape:connector-curvature="0" />
    <path
       d="m 152.62919,249.02504 c -0.63148,0 -1.17123,-0.22189 -1.61573,-0.66604 -0.4445,-0.44415 -0.66675,-0.98249 -0.66675,-1.61537 0,-0.63112 0.22225,-1.16593 0.66675,-1.60126 0.4445,-0.43568 0.98425,-0.65334 1.61573,-0.65334 0.61383,0 1.143,0.21766 1.5875,0.65334 0.4445,0.43533 0.66675,0.97014 0.66675,1.60126 0,0.30833 -0.06,0.60255 -0.17992,0.88441 -0.11994,0.28187 -0.28222,0.52564 -0.48683,0.73096 -0.20461,0.20532 -0.4445,0.36759 -0.71614,0.48683 -0.27517,0.11995 -0.56445,0.17921 -0.87136,0.17921 m 2.22955,12.32818 c 0.0176,0.15345 0.0494,0.28222 0.10231,0.38417 0.0353,0.0857 0.0847,0.16651 0.15522,0.24342 0.067,0.0773 0.16228,0.11606 0.28222,0.11606 h -0.53975 -0.17991 -4.35681 v -11.50796 c 0,-0.2219 -0.0494,-0.37994 -0.15522,-0.47449 -0.10231,-0.0942 -0.16934,-0.14922 -0.20461,-0.16651 -0.0847,-0.0512 -0.127,-0.11959 -0.127,-0.20532 0,-0.17039 0.0776,-0.25646 0.2293,-0.25646 h 0.0282 0.22931 2.28247 c 0.30692,0 0.5962,0.0603 0.87136,0.17991 0.27164,0.11924 0.51153,0.28187 0.71614,0.48684 0.20461,0.20461 0.36689,0.44838 0.48684,0.73025 0.11994,0.28186 0.17991,0.57679 0.17991,0.88441 z"
       style="fill:#ffffff;fill-opacity:1;fill-rule:nonzero;stroke:none;stroke-width:0.35277778"
       id="path4225"
       inkscape:connector-curvature="0" />
    <path
       d="m 168.92752,258.48302 c -0.0317,0.66604 -0.27164,1.26435 -0.71614,1.79422 -0.18697,0.22155 -0.42686,0.43992 -0.71614,0.6537 -0.2928,0.21308 -0.64911,0.40111 -1.07597,0.56339 -0.43039,0.16263 -0.93486,0.29457 -1.51342,0.39723 -0.58208,0.1023 -1.25589,0.15345 -2.02494,0.15345 -1.40053,0 -2.50472,-0.15275 -3.30553,-0.45896 -0.80433,-0.30656 -1.40758,-0.65969 -1.80622,-1.05939 -0.40217,-0.39935 -0.6597,-0.79093 -0.76906,-1.17405 -0.11289,-0.38347 -0.16933,-0.64205 -0.16933,-0.77858 -0.0176,-0.0677 -0.0247,-0.1778 -0.0247,-0.33161 0,-0.62971 0.21872,-1.16522 0.65263,-1.60796 0.43745,-0.44203 0.97014,-0.66322 1.60162,-0.66322 0.635,0 1.17122,0.22119 1.61572,0.66252 0.4445,0.44203 0.66675,0.97754 0.66675,1.60619 l 0.0247,1.35044 c 0.0176,0.18662 0.0776,0.3563 0.17992,0.50976 0.0847,0.13617 0.23283,0.25506 0.43744,0.35666 0.20461,0.10195 0.49389,0.15346 0.87136,0.15346 0.37395,0 0.67028,-0.0515 0.88195,-0.15417 0.21519,-0.1023 0.36336,-0.22189 0.44803,-0.35877 0.10583,-0.15381 0.16227,-0.33267 0.17991,-0.53799 l 0.0282,-1.12783 c 0,-0.13688 -0.0176,-0.30762 -0.0529,-0.51294 -0.0353,-0.20496 -0.0882,-0.40957 -0.16581,-0.61489 -0.0776,-0.20496 -0.18697,-0.39299 -0.33514,-0.56339 -0.14463,-0.17074 -0.32808,-0.29104 -0.55033,-0.35948 -0.0494,0 -0.10936,-0.0166 -0.17992,-0.0508 -0.32455,-0.10265 -0.71261,-0.22613 -1.16416,-0.37182 -0.45509,-0.14535 -0.92428,-0.29845 -1.41111,-0.46179 -0.48684,-0.16193 -0.95956,-0.3369 -1.4217,-0.52458 -0.46214,-0.18803 -0.84666,-0.37606 -1.15358,-0.56374 -0.0353,-0.0176 -0.067,-0.0349 -0.10231,-0.0519 -0.0353,-0.0166 -0.0705,-0.0423 -0.1023,-0.0769 -0.17286,-0.1196 -0.29281,-0.2219 -0.35984,-0.30727 -0.0353,-0.0339 -0.06,-0.0684 -0.0776,-0.10231 -0.33866,-0.39335 -0.51152,-0.87171 -0.51152,-1.43545 v -0.25647 c 0.0176,-0.64946 0.24694,-1.2386 0.69144,-1.76848 0.1905,-0.22189 0.42686,-0.44026 0.71967,-0.65334 0.28927,-0.21378 0.64911,-0.40569 1.07597,-0.57714 0.42686,-0.1704 0.93133,-0.30727 1.50989,-0.41028 0.58208,-0.10196 1.25941,-0.15346 2.02494,-0.15346 1.40053,0 2.50472,0.15346 3.30906,0.46143 0.8008,0.30762 1.40405,0.66216 1.80622,1.06327 0.39864,0.40217 0.65617,0.79093 0.76906,1.16629 0.10936,0.37641 0.17286,0.63288 0.1905,0.7687 0,0.0691 0.004,0.12841 0.0141,0.17956 0.007,0.0515 0.0106,0.11148 0.0106,0.17992 0,0.63182 -0.22225,1.16593 -0.66322,1.60196 -0.4445,0.43533 -0.98425,0.6537 -1.61572,0.6537 -0.63148,0 -1.1677,-0.21837 -1.60162,-0.6537 -0.43744,-0.43603 -0.65263,-0.97014 -0.65263,-1.60196 l -0.0282,-1.3589 c -0.0176,-0.18733 -0.0741,-0.35878 -0.17991,-0.51188 -0.0847,-0.13688 -0.23284,-0.25718 -0.44803,-0.35948 -0.21167,-0.10195 -0.508,-0.15381 -0.88195,-0.15381 -0.39511,0 -0.69144,0.0519 -0.89958,0.15381 -0.20461,0.1023 -0.34925,0.2226 -0.43392,0.35948 -0.1023,0.1531 -0.16227,0.32455 -0.17991,0.51188 v 1.15358 c 0,0.13688 0.0141,0.30762 0.0388,0.51259 0.0247,0.20532 0.0776,0.41451 0.15523,0.62794 0.0741,0.21343 0.18697,0.40605 0.33161,0.57679 0.14464,0.17075 0.33514,0.28187 0.57502,0.33303 0.32456,0.1023 0.762,0.23071 1.30881,0.38382 0.54681,0.15416 1.10772,0.32985 1.67922,0.52634 0.5715,0.1965 1.11831,0.4184 1.64042,0.6664 0.51858,0.248 0.93486,0.52493 1.24178,0.83291 0.40922,0.4445 0.61383,0.95708 0.61383,1.53705 z"
       style="fill:#ffffff;fill-opacity:1;fill-rule:nonzero;stroke:none;stroke-width:0.35277778"
       id="path4227"
       inkscape:connector-curvature="0" />
    <path
       d="m 68.590467,275.4795 c 0,-0.41064 -0.03881,-0.70873 -0.116417,-0.89747 -0.07408,-0.18697 -0.169333,-0.31574 -0.282222,-0.38417 -0.109361,-0.0681 -0.22225,-0.085 -0.331611,-0.0508 -0.112889,0.0342 -0.201084,0.0681 -0.268111,0.10195 -0.172862,0.13688 -0.359834,0.29915 -0.564445,0.48718 -0.204611,0.18768 -0.405694,0.37571 -0.60325,0.56374 -0.197555,0.18874 -0.377472,0.35913 -0.536222,0.51259 -0.165806,0.15381 -0.278695,0.26494 -0.34925,0.33373 l 0.02822,5.35587 c 0.01411,0.18838 0.07408,0.35913 0.179917,0.51329 0.08467,0.13653 0.229305,0.25576 0.433916,0.35842 0.204612,0.10231 0.504473,0.15381 0.896056,0.15381 0.377472,0 0.663222,-0.0515 0.860778,-0.15381 0.194028,-0.10266 0.345722,-0.22189 0.448028,-0.35842 0.102305,-0.15416 0.169333,-0.32491 0.204611,-0.51329 z m 4.561416,-0.51259 c 0,0.41028 -0.0035,1.06398 -0.01058,1.96039 -0.01058,0.89746 -0.01411,2.15759 -0.01411,3.78036 -0.03528,0.20532 -0.130528,0.49178 -0.282222,0.85866 -0.155223,0.3676 -0.4445,0.73096 -0.874889,1.08938 -0.426861,0.35948 -1.030111,0.66675 -1.80975,0.92287 -0.779639,0.25647 -1.802695,0.38417 -3.069167,0.38417 h -3.185583 c -0.871361,0 -1.8415,-0.009 -2.899833,-0.0254 v -15.01951 c 0,-0.22154 -0.05292,-0.37959 -0.155223,-0.47378 -0.102305,-0.0938 -0.172861,-0.14923 -0.204611,-0.16651 -0.08467,-0.0346 -0.130528,-0.10301 -0.130528,-0.20532 0,-0.17039 0.08819,-0.25611 0.257528,-0.25611 h 0.232834 2.278944 c 0.306917,0 0.599722,0.06 0.871361,0.17991 0.271639,0.11924 0.511528,0.28152 0.719667,0.48684 0.204611,0.20425 0.366889,0.44838 0.486833,0.73025 0.116417,0.28151 0.176389,0.57679 0.176389,0.88406 l 0.01058,4.94629 c 0.546806,-0.71719 1.023056,-1.33667 1.425222,-1.85772 0.402167,-0.52141 0.776112,-0.91864 1.118306,-1.19204 0.239889,-0.18733 0.479778,-0.31997 0.719667,-0.39758 0.239889,-0.0765 0.455083,-0.13159 0.642055,-0.16616 0.22225,-0.0339 0.4445,-0.0423 0.66675,-0.0254 0.462139,0 0.85725,0.06 1.181806,0.17921 0.324555,0.11959 0.599722,0.27376 0.821972,0.46179 0.22225,0.18768 0.398639,0.38876 0.525639,0.60148 0.130528,0.21414 0.236361,0.42369 0.321028,0.62795 0.05292,0.13758 0.09525,0.27869 0.130527,0.42368 0.03175,0.14464 0.04939,0.29422 0.04939,0.44839 z"
       style="fill:#ffffff;fill-opacity:1;fill-rule:nonzero;stroke:none;stroke-width:0.35277778"
       id="path4229"
       inkscape:connector-curvature="0" />
    <path
       d="m 79.381939,281.77164 c 0.04939,0.50412 0.109361,0.91863 0.176389,1.24319 0.07055,0.37606 0.155222,0.67522 0.257527,0.89676 l -3.023305,-0.0254 c -0.529167,-0.0684 -0.98425,-0.29034 -1.358195,-0.66675 -0.377472,-0.375 -0.589138,-0.83644 -0.642055,-1.38359 v -12.96882 c 0,-0.2219 -0.04939,-0.37994 -0.151695,-0.47413 -0.105833,-0.0938 -0.172861,-0.14993 -0.208138,-0.16651 h -0.0247 c -0.06703,-0.0339 -0.102305,-0.10302 -0.102305,-0.20497 0,-0.17074 0.07761,-0.25647 0.229305,-0.25647 h 0.257528 2.25425 c 0.631472,0 1.171222,0.22261 1.615722,0.66675 0.4445,0.44415 0.66675,0.98214 0.66675,1.61467 v 9.81568 c -0.01764,0.76906 0,1.40582 0.05292,1.90959"
       style="fill:#ffffff;fill-opacity:1;fill-rule:nonzero;stroke:none;stroke-width:0.35277778"
       id="path4231"
       inkscape:connector-curvature="0" />
    <path
       d="m 93.450716,282.04081 c 0.05292,0.40993 0.112889,0.76059 0.179917,1.05093 0.06703,0.32455 0.144639,0.60677 0.229305,0.8456 l -3.023305,-0.0254 c -0.529167,-0.0677 -0.980722,-0.29033 -1.358195,-0.66675 -0.377472,-0.375 -0.589138,-0.83679 -0.642055,-1.38359 v -0.42298 c 0,-0.29916 -0.0071,-0.6791 -0.02469,-1.14053 -0.546805,0.71755 -1.016,1.33738 -1.407583,1.85808 -0.395111,0.52105 -0.762,0.91828 -1.104194,1.19168 -0.239889,0.18803 -0.479778,0.32103 -0.716139,0.39723 -0.239889,0.0769 -0.455083,0.13264 -0.642056,0.16686 -0.22225,0.0335 -0.4445,0.0416 -0.66675,0.0254 -0.462139,0 -0.850194,-0.0596 -1.164166,-0.17956 -0.3175,-0.11889 -0.585611,-0.27305 -0.807861,-0.46143 -0.22225,-0.18768 -0.402167,-0.39229 -0.53975,-0.6149 -0.137584,-0.22189 -0.246945,-0.43532 -0.331612,-0.64064 -0.119944,-0.29069 -0.179916,-0.58102 -0.179916,-0.87171 v -8.91928 c -0.01764,-0.18803 -0.07408,-0.32421 -0.165806,-0.40958 -0.09525,-0.0857 -0.15875,-0.13688 -0.194028,-0.15416 -0.08467,-0.0339 -0.127,-0.10231 -0.127,-0.20497 0,-0.17074 0.08467,-0.25647 0.254,-0.25647 h 0.232834 2.25425 c 0.631472,0 1.171222,0.22261 1.615722,0.66675 0.4445,0.4438 0.66675,0.98284 0.66675,1.61467 v 7.66304 c 0,0.0857 0.02469,0.16298 0.07761,0.23071 0.03175,0.0512 0.07761,0.09 0.141111,0.11536 0.05997,0.0258 0.155222,0.004 0.292806,-0.0642 0.102305,-0.0512 0.268111,-0.17886 0.500944,-0.38418 0.229306,-0.20496 0.472722,-0.42686 0.73025,-0.6664 0.254,-0.23918 0.504472,-0.4699 0.744361,-0.69179 0.236361,-0.22261 0.409222,-0.38453 0.511528,-0.48684 v -7.99712 h 4.536722 v 9.38072 c 0.03175,0.54751 0.07761,1.02517 0.127,1.43545"
       style="fill:#ffffff;fill-opacity:1;fill-rule:nonzero;stroke:none;stroke-width:0.35277778"
       id="path4233"
       inkscape:connector-curvature="0" />
    <path
       d="m 99.885383,274.09484 -0.01058,3.58917 c 0.754937,-0.32491 1.333497,-0.61984 1.735667,-0.88442 0.40216,-0.26458 0.6985,-0.49107 0.88547,-0.6791 0.22225,-0.20496 0.35983,-0.39334 0.41275,-0.56444 v -2.56293 c -0.0176,-0.18697 -0.0776,-0.35842 -0.17992,-0.51223 -0.0847,-0.13653 -0.23636,-0.25647 -0.44803,-0.35878 -0.21519,-0.1023 -0.508,-0.15416 -0.88547,-0.15416 -0.37394,0 -0.66675,0.0519 -0.87136,0.15416 -0.20461,0.10231 -0.34925,0.22225 -0.43392,0.35878 -0.119937,0.15381 -0.190492,0.32526 -0.204603,0.51223 z m 5.291667,3.79342 c 0.62794,0 1.16417,0.21837 1.60514,0.6537 0.44097,0.43603 0.66322,0.97014 0.66322,1.60196 0,0.20532 -0.0494,0.52176 -0.14111,0.94862 -0.0952,0.42686 -0.33867,0.8502 -0.73025,1.26824 -0.39158,0.41945 -0.99131,0.79093 -1.8027,1.11478 -0.81138,0.32491 -1.94027,0.48754 -3.38666,0.48754 -1.143,0 -2.081391,-0.1069 -2.815168,-0.32068 -0.733778,-0.21308 -1.322917,-0.47413 -1.763889,-0.7814 -0.4445,-0.30727 -0.769056,-0.62795 -0.973667,-0.96097 -0.204611,-0.33373 -0.338667,-0.62794 -0.405694,-0.88441 l -0.07761,-0.41028 v -0.32032 -0.75601 -1.03822 -1.19169 -3.20428 c 0.03175,-0.6484 0.271638,-1.2386 0.716138,-1.76777 0.186973,-0.22225 0.426861,-0.43991 0.716139,-0.65334 0.289278,-0.21343 0.642056,-0.4064 1.058334,-0.57679 0.419805,-0.17075 0.92075,-0.30727 1.509888,-0.41063 0.589139,-0.10231 1.266469,-0.15311 2.035529,-0.15311 1.27705,0 2.30364,0.13264 3.07975,0.39723 0.77611,0.26529 1.37583,0.58102 1.80269,0.94862 0.42686,0.36724 0.71261,0.73413 0.85725,1.10172 0.14464,0.3676 0.23636,0.65335 0.26811,0.85866 0.0529,0.25541 0.0706,0.4953 0.0529,0.7172 -0.0176,0.11994 -0.0423,0.23989 -0.0776,0.35913 -0.0353,0.11924 -0.067,0.23071 -0.10231,0.33302 l -0.0247,0.0254 c -0.0529,0.1203 -0.11995,0.23989 -0.20461,0.35948 -0.0847,0.13688 -0.23284,0.28575 -0.43392,0.44803 -0.20461,0.16228 -0.47625,0.31221 -0.81844,0.44873 -0.28928,0.13653 -0.66675,0.29069 -1.13595,0.46108 -0.46919,0.17075 -0.98072,0.35066 -1.53458,0.53834 -0.55386,0.18768 -1.11125,0.37606 -1.67217,0.56374 -0.56091,0.18838 -1.0795,0.35913 -1.555746,0.51259 v 1.79422 1.10173 c 0.01411,0.18873 0.08467,0.35948 0.204606,0.51329 0.0847,0.13653 0.22931,0.25576 0.43392,0.35842 0.20461,0.10231 0.49742,0.15417 0.87136,0.15417 0.37747,0 0.67028,-0.0519 0.88547,-0.15417 0.21167,-0.10266 0.36336,-0.22189 0.44803,-0.35842 0.10231,-0.15381 0.16228,-0.32456 0.17992,-0.51329 l 0.0247,-1.3582 c 0,-0.63182 0.22225,-1.16593 0.66322,-1.60196 0.44098,-0.43533 0.96662,-0.6537 1.58045,-0.6537"
       style="fill:#ffffff;fill-opacity:1;fill-rule:nonzero;stroke:none;stroke-width:0.35277778"
       id="path4235"
       inkscape:connector-curvature="0" />
    <path
       d="m 121.5671,280.29809 c -0.0353,0.66604 -0.27516,1.26471 -0.71966,1.79387 -0.18697,0.22261 -0.42686,0.44027 -0.71614,0.6537 -0.28928,0.21343 -0.64911,0.40111 -1.07597,0.56374 -0.42686,0.16228 -0.93134,0.29492 -1.51342,0.39723 -0.58208,0.10266 -1.25589,0.15381 -2.02494,0.15381 -1.40053,0 -2.5012,-0.15311 -3.30553,-0.45932 -0.80434,-0.30621 -1.40406,-0.65899 -1.80622,-1.05904 -0.40217,-0.40005 -0.6597,-0.79163 -0.76906,-1.17439 -0.11289,-0.38277 -0.16581,-0.64171 -0.16581,-0.77788 -0.0176,-0.0684 -0.0282,-0.17886 -0.0282,-0.33232 0,-0.629 0.21872,-1.16522 0.65617,-1.6076 0.43392,-0.44203 0.96661,-0.66393 1.60161,-0.66393 0.63147,0 1.16769,0.22119 1.61219,0.66287 0.4445,0.44203 0.66675,0.97719 0.66675,1.60619 l 0.0282,1.35044 c 0.0141,0.18697 0.0741,0.35736 0.17991,0.50976 0.0811,0.13617 0.22931,0.25577 0.43392,0.35737 0.20461,0.10124 0.49389,0.1524 0.87136,0.1524 0.37395,0 0.67028,-0.0512 0.88547,-0.15382 0.21167,-0.10265 0.35984,-0.22119 0.44803,-0.35877 0.10231,-0.15346 0.16228,-0.33267 0.17992,-0.53799 l 0.0247,-1.12747 c 0,-0.13688 -0.0176,-0.30763 -0.0529,-0.51259 -0.0353,-0.20496 -0.0882,-0.41063 -0.16581,-0.6156 -0.0776,-0.20531 -0.18697,-0.39264 -0.33161,-0.56374 -0.14817,-0.17074 -0.33161,-0.28998 -0.55033,-0.35912 -0.0529,0 -0.11289,-0.0166 -0.17992,-0.0505 -0.32808,-0.10301 -0.71614,-0.22684 -1.1677,-0.37183 -0.45155,-0.14499 -0.92427,-0.29915 -1.41111,-0.46108 -0.48683,-0.16263 -0.95955,-0.33761 -1.42169,-0.52599 -0.46214,-0.18803 -0.84314,-0.37606 -1.15358,-0.56374 -0.0318,-0.0173 -0.067,-0.0339 -0.10231,-0.0512 -0.0353,-0.0166 -0.067,-0.043 -0.10231,-0.0773 -0.16933,-0.11889 -0.28927,-0.2219 -0.3563,-0.30762 -0.0353,-0.0339 -0.0635,-0.0677 -0.0776,-0.10231 -0.3422,-0.39299 -0.51506,-0.87171 -0.51506,-1.43545 v -0.25612 c 0.0176,-0.64946 0.24695,-1.2386 0.69145,-1.76847 0.1905,-0.2219 0.43039,-0.43956 0.71966,-0.6537 0.28928,-0.21343 0.64911,-0.40534 1.07598,-0.57679 0.42686,-0.17075 0.93133,-0.30762 1.51341,-0.40993 0.57856,-0.10266 1.25589,-0.15381 2.02142,-0.15381 1.40405,0 2.50472,0.15381 3.30905,0.46143 0.80081,0.30762 1.40406,0.66287 1.80623,1.06398 0.40216,0.40146 0.65616,0.79022 0.76905,1.16628 0.10936,0.37571 0.17639,0.63183 0.19403,0.76871 0,0.0684 0.004,0.1277 0.0106,0.17885 0.0106,0.0519 0.0141,0.11183 0.0141,0.17957 0,0.63288 -0.22225,1.16628 -0.66675,1.60231 -0.4445,0.43604 -0.98425,0.65335 -1.61572,0.65335 -0.63147,0 -1.16416,-0.21731 -1.60161,-0.65335 -0.43392,-0.43603 -0.65264,-0.96943 -0.65264,-1.60231 l -0.0247,-1.3582 c -0.0176,-0.18803 -0.0776,-0.35842 -0.17992,-0.51258 -0.0882,-0.13653 -0.23636,-0.25612 -0.44803,-0.35842 -0.21519,-0.10302 -0.51152,-0.15417 -0.88547,-0.15417 -0.39158,0 -0.69144,0.0512 -0.89605,0.15417 -0.20814,0.1023 -0.35278,0.22189 -0.43745,0.35842 -0.1023,0.15416 -0.16228,0.32455 -0.17992,0.51258 v 1.15288 c 0,0.13758 0.0141,0.30833 0.0388,0.51294 0.0282,0.20496 0.0776,0.41451 0.15522,0.62794 0.0776,0.21414 0.18697,0.40605 0.33161,0.57644 0.14464,0.17181 0.33867,0.28187 0.57856,0.33338 0.32455,0.10266 0.75847,0.23072 1.30528,0.38488 0.5468,0.15381 1.10772,0.32914 1.67922,0.52564 0.5715,0.19614 1.1183,0.41839 1.64042,0.66604 0.52211,0.24765 0.93486,0.52494 1.24177,0.83291 0.41275,0.4445 0.61736,0.95673 0.61736,1.53776 z"
       style="fill:#ffffff;fill-opacity:1;fill-rule:nonzero;stroke:none;stroke-width:0.35277778"
       id="path4237"
       inkscape:connector-curvature="0" />
    <path
       d="m 17.656412,296.98765 c -0.709083,0 -1.280583,-0.57432 -1.280583,-1.2834 v -40.82521 c 0,-0.70908 0.5715,-1.28376 1.280583,-1.28376 0.709084,0 1.284111,0.57468 1.284111,1.28376 v 40.82521 c 0,0.70908 -0.575027,1.2834 -1.284111,1.2834"
       style="fill:#bcbec0;fill-opacity:1;fill-rule:nonzero;stroke:none;stroke-width:0.35277778"
       id="path4239"
       inkscape:connector-curvature="0" />
    <path
       d="m 35.12244,296.98765 c -0.709084,0 -1.284111,-0.57432 -1.284111,-1.2834 v -40.82521 c 0,-0.70908 0.575027,-1.28376 1.284111,-1.28376 0.709083,0 1.284111,0.57468 1.284111,1.28376 v 40.82521 c 0,0.70908 -0.575028,1.2834 -1.284111,1.2834"
       style="fill:#bcbec0;fill-opacity:1;fill-rule:nonzero;stroke:none;stroke-width:0.35277778"
       id="path4241"
       inkscape:connector-curvature="0" />
    <path
       d="m 23.480773,296.98765 c -0.709083,0 -1.284111,-0.57432 -1.284111,-1.2834 v -46.11159 c 0,-0.70908 0.575028,-1.2834 1.284111,-1.2834 0.709084,0 1.284111,0.57432 1.284111,1.2834 v 46.11159 c 0,0.70908 -0.575027,1.2834 -1.284111,1.2834"
       style="fill:#bcbec0;fill-opacity:1;fill-rule:nonzero;stroke:none;stroke-width:0.35277778"
       id="path4243"
       inkscape:connector-curvature="0" />
    <path
       d="m 29.301606,296.98765 c -0.709083,0 -1.284111,-0.57432 -1.284111,-1.2834 v -46.11159 c 0,-0.70908 0.575028,-1.2834 1.284111,-1.2834 0.709084,0 1.284111,0.57432 1.284111,1.2834 v 46.11159 c 0,0.70908 -0.575027,1.2834 -1.284111,1.2834"
       style="fill:#bcbec0;fill-opacity:1;fill-rule:nonzero;stroke:none;stroke-width:0.35277778"
       id="path4245"
       inkscape:connector-curvature="0" />
    <path
       d="m 11.835579,296.98765 c -0.709083,0 -1.284111,-0.57432 -1.284111,-1.2834 v -37.40256 c 0,-0.70908 0.575028,-1.28376 1.284111,-1.28376 0.709083,0 1.284111,0.57468 1.284111,1.28376 v 37.40256 c 0,0.70908 -0.575028,1.2834 -1.284111,1.2834"
       style="fill:#bcbec0;fill-opacity:1;fill-rule:nonzero;stroke:none;stroke-width:0.35277778"
       id="path4247"
       inkscape:connector-curvature="0" />
    <path
       d="m 40.943273,296.98765 c -0.705556,0 -1.280583,-0.57432 -1.280583,-1.2834 v -37.40256 c 0,-0.70908 0.575027,-1.28376 1.280583,-1.28376 0.709083,0 1.284111,0.57468 1.284111,1.28376 v 37.40256 c 0,0.70908 -0.575028,1.2834 -1.284111,1.2834"
       style="fill:#bcbec0;fill-opacity:1;fill-rule:nonzero;stroke:none;stroke-width:0.35277778"
       id="path4249"
       inkscape:connector-curvature="0" />
    <path
       d="m 40.530523,231.50928 c -4.515556,-0.0416 -9.623778,-0.0586 -14.139333,-0.0579 0,0 -9.468556,0.0145 -14.142861,0.0579 -6.8156665,0.0631 -12.47422194,5.85046 -12.24138862,12.29183 0.21166667,5.80708 5.56330542,10.541 10.96433262,9.69998 4.741334,-0.73836 7.662334,-4.70817 7.055556,-9.46397 -0.179917,-1.39171 -1.026583,-2.79718 -1.852083,-3.59657 -0.938389,-0.90981 -1.908528,-1.46826 -3.167945,-1.79529 -3.2384997,-0.83996 -6.709833,1.44569 -7.2954441,4.71206 -0.3986389,2.22602 0.9419167,4.58681 3.0868055,5.42748 1.9155836,0.75142 4.0851666,0.0441 5.1576106,-1.69686 0.469195,-0.7627 0.818445,-1.59032 -0.144638,-2.20733 -0.896056,-0.57467 -1.421695,-7e-4 -1.915584,0.7493 -0.8255,1.25095 -2.1907497,1.26753 -3.153833,0.10901 -1.0653889,-1.27953 -0.5891389,-3.23462 1.0195277,-4.18641 1.8591393,-1.09926 4.3356393,-0.21837 5.4186663,1.92722 1.389945,2.75696 -0.345722,6.30449 -3.591277,7.33601 -4.053417,1.28729 -8.639528,-2.08773 -9.0346391,-6.64598 -0.4515556,-5.22146 4.0604721,-10.05381 9.5849721,-10.14342 4.670778,-0.0755 9.637889,-0.0173 14.31925,-0.018 0,0 9.510888,-0.0575 14.185194,0.018 5.5245,0.0896 10.032999,4.92196 9.581444,10.14342 -0.391583,4.55825 -4.977694,7.93327 -9.031111,6.64598 -3.245555,-1.03152 -4.98475,-4.57905 -3.591278,-7.33601 1.0795,-2.14559 3.556,-3.02648 5.418667,-1.92722 1.608667,0.95179 2.084917,2.90688 1.019528,4.18641 -0.966611,1.15852 -2.328334,1.14194 -3.153834,-0.10901 -0.497416,-0.75 -1.019527,-1.32397 -1.915583,-0.7493 -0.963083,0.61701 -0.613833,1.44463 -0.144639,2.20733 1.072445,1.74096 3.242028,2.44828 5.157611,1.69686 2.141361,-0.84067 3.485445,-3.20146 3.086806,-5.42748 -0.585611,-3.26637 -4.056945,-5.55202 -7.295445,-4.71206 -1.259416,0.32703 -2.233083,0.88548 -3.171472,1.79529 -0.8255,0.79939 -1.672166,2.20486 -1.848555,3.59657 -0.606778,4.7558 2.310694,8.72561 7.055555,9.46397 5.401028,0.84102 10.752667,-3.8929 10.960805,-9.69998 0.236362,-6.44137 -5.425722,-12.22869 -12.241388,-12.29183"
       style="fill:#ffffff;fill-opacity:1;fill-rule:evenodd;stroke:none;stroke-width:0.35277778"
       id="path4251"
       inkscape:connector-curvature="0" />
    <path
       d="m 32.173217,246.33335 c -1.42875,0 -2.349499,-0.69039 -3.160888,-1.29999 -0.804334,-0.60254 -1.439334,-1.07808 -2.645834,-1.07808 -1.160639,0 -1.721555,0.45085 -2.430638,1.02164 -0.751417,0.60149 -1.68275,1.35043 -3.220862,1.35255 h -0.01058 c -3.637139,0 -5.782027,-3.43218 -5.87375,-3.57858 -0.363361,-0.59302 -0.176389,-1.36878 0.416278,-1.73249 0.592667,-0.36266 1.36525,-0.17815 1.732139,0.41204 0.02822,0.0441 1.520472,2.37949 3.728861,2.37949 h 0.0035 c 0.624416,-0.001 0.973666,-0.26 1.643944,-0.79798 0.829028,-0.66569 1.964972,-1.57692 4.011083,-1.57692 2.046111,0 3.266723,0.91475 4.155722,1.58221 0.6985,0.52317 1.090084,0.79622 1.651,0.79622 1.552223,0 2.458862,-0.85478 3.683,-2.53788 0.409223,-0.56269 1.195917,-0.68686 1.760361,-0.27799 0.560917,0.40922 0.687917,1.19732 0.278695,1.76 -1.259417,1.73003 -2.843389,3.57576 -5.722056,3.57576"
       style="fill:#ffffff;fill-opacity:1;fill-rule:nonzero;stroke:none;stroke-width:0.35277778"
       id="path4253"
       inkscape:connector-curvature="0" />
    <path
       d="m 17.656412,273.77276 c -0.709083,0 -1.284111,0.57503 -1.284111,1.28376 v 20.66007 c 0,0.70909 0.575028,1.28341 1.284111,1.28341 0.709084,0 1.284111,-0.57432 1.284111,-1.28341 v -20.66007 c 0,-0.70873 -0.575027,-1.28376 -1.284111,-1.28376"
       style="fill:#ffffff;fill-opacity:1;fill-rule:nonzero;stroke:none;stroke-width:0.35277778"
       id="path4255"
       inkscape:connector-curvature="0" />
    <path
       d="m 23.480773,262.47187 c -0.709083,0 -1.284111,0.57468 -1.284111,1.28376 v 31.96061 c 0,0.70873 0.575028,1.28376 1.284111,1.28376 0.709084,0 1.284111,-0.57503 1.284111,-1.28376 v -31.96061 c 0,-0.70908 -0.575027,-1.28376 -1.284111,-1.28376"
       style="fill:#ffffff;fill-opacity:1;fill-rule:nonzero;stroke:none;stroke-width:0.35277778"
       id="path4257"
       inkscape:connector-curvature="0" />
    <path
       d="m 35.12244,270.30001 c -0.709084,0 -1.284111,0.57503 -1.284111,1.28376 v 24.13247 c 0,0.70908 0.575027,1.28376 1.284111,1.28376 0.709083,0 1.284111,-0.57468 1.284111,-1.28376 v -24.13247 c 0,-0.70873 -0.575028,-1.28376 -1.284111,-1.28376"
       style="fill:#ffffff;fill-opacity:1;fill-rule:nonzero;stroke:none;stroke-width:0.35277778"
       id="path4259"
       inkscape:connector-curvature="0" />
    <path
       d="m 40.943273,286.43783 c -0.709084,0 -1.284111,0.57503 -1.284111,1.28376 v 7.995 c 0,0.70909 0.575027,1.28341 1.284111,1.28341 0.709083,0 1.284111,-0.57432 1.284111,-1.28341 v -7.995 c 0,-0.70873 -0.575028,-1.28376 -1.284111,-1.28376"
       style="fill:#ffffff;fill-opacity:1;fill-rule:nonzero;stroke:none;stroke-width:0.35277778"
       id="path4261"
       inkscape:connector-curvature="0" />
    <path
       d="m 11.835579,281.14299 c -0.709083,0 -1.284111,0.57503 -1.284111,1.28411 v 13.28949 c 0,0.70909 0.575028,1.28341 1.284111,1.28341 0.709083,0 1.284111,-0.57432 1.284111,-1.28341 V 282.4271 c 0,-0.70908 -0.575028,-1.28411 -1.284111,-1.28411"
       style="fill:#ffffff;fill-opacity:1;fill-rule:nonzero;stroke:none;stroke-width:0.35277778"
       id="path4263"
       inkscape:connector-curvature="0" />
    <path
       d="m 29.301606,254.56471 c -0.709083,0 -1.284111,0.57468 -1.284111,1.28341 v 39.86847 c 0,0.70909 0.575028,1.28341 1.284111,1.28341 0.709084,0 1.284111,-0.57432 1.284111,-1.28341 v -39.86847 c 0,-0.70873 -0.575027,-1.28341 -1.284111,-1.28341"
       style="fill:#ffffff;fill-opacity:1;fill-rule:nonzero;stroke:none;stroke-width:0.35277778"
       id="path4265"
       inkscape:connector-curvature="0" />
  </g>
</svg>
